<?xml version="1.0" encoding="UTF-8"?>
<svg fill="none" viewBox="0 0 100 44" xmlns="http://www.w3.org/2000/svg">
<path d="m37.141 19.882c4.0357 0 7.0463 0.9666 9.0323 2.8994 1.9965 1.9329 2.9951 4.8216 2.9951 8.6661v0.9873c0 7.7102-4.0092 11.565-12.027 11.565-8.0288 0-12.043-3.8552-12.043-11.565v-0.9873c0-7.7102 4.0141-11.566 12.043-11.566zm51 0c3.9507 0 6.8024 0.5948 8.5547 1.7842 1.7628 1.1788 2.6444 2.7873 2.6445 4.8262v0.1601c0 1.2848-0.329 2.3627-0.9873 3.2334-0.6584 0.8602-1.641 1.466-2.9472 1.8164 1.4548 0.3187 2.5595 0.9504 3.3135 1.8956 0.7538 0.9451 1.1308 2.1347 1.1308 3.5683v0.1436c-1e-4 2.1025-0.9028 3.7431-2.708 4.9218-1.7948 1.1789-4.8005 1.7686-9.0166 1.7686-4.2056 0-7.2112-0.5897-9.0166-1.7686-1.8053-1.1787-2.7079-2.8193-2.708-4.9218v-0.1436c0-1.4336 0.3769-2.6232 1.1308-3.5683 0.754-0.9451 1.8638-1.5769 3.3292-1.8956-1.3061-0.3504-2.2879-0.9563-2.9463-1.8164-0.6584-0.8707-0.9882-1.9485-0.9883-3.2334v-0.1601c1e-4 -2.0388 0.8818-3.6474 2.6445-4.8262 1.7629-1.1894 4.6197-1.7841 8.5703-1.7842zm-76.352 0c3.8339 0 6.5956 0.6108 8.2842 1.8321 1.6884 1.2213 2.5322 2.9576 2.5322 5.209v0.1269c0 1.1574-0.2171 2.1612-0.6524 3.0107-0.4247 0.8389-1.0886 1.5667-1.9912 2.1827-0.8919 0.6159-2.0658 1.1467-3.5205 1.5927l-7.3125 2.167c-0.67965 0.223-1.1625 0.4889-1.4492 0.7969-0.27609 0.308-0.41405 0.7059-0.41406 1.1943v0.128h15.436v5.2402h-22.7v-3.1855c0-1.6674 0.2229-3.0378 0.66894-4.1104 0.45666-1.0726 1.1364-1.9383 2.0391-2.5967 0.91332-0.669 2.1298-1.2418 3.6484-1.7197l6.2764-1.7842c0.9556-0.3185 1.6245-0.6745 2.0068-1.0674 0.3929-0.3928 0.5898-0.8869 0.5899-1.4814v-0.0957c0-0.754-0.2819-1.3388-0.8447-1.7529-0.5523-0.4247-1.4391-0.6368-2.6602-0.6368-1.3594 0-2.3579 0.2709-2.9951 0.8125-0.6264 0.531-0.96644 1.3278-1.0195 2.3897v0.0156h-7.168c0.01062-1.816 0.38244-3.3293 1.1152-4.54 0.74341-1.2107 1.9379-2.1353 3.584-2.7725 1.6566-0.6371 3.839-0.955 6.5469-0.9551zm58.901 14.289h3.4726v5.209h-3.4726v3.9824h-7.2002v-3.9824h-12.903v-4.9863l12.346-13.875h7.7579v13.652zm17.436-0.4775c-1.5612 0-2.6926 0.2389-3.3936 0.7168-0.7006 0.4778-1.0507 1.1308-1.0507 1.9589v0.1436c0 0.839 0.3448 1.4977 1.0351 1.9756 0.701 0.4778 1.8375 0.7168 3.4092 0.7168 1.5714 0 2.7022-0.2391 3.3926-0.7168 0.7009-0.4779 1.0517-1.1366 1.0517-1.9756v-0.1436c0-0.8282-0.3508-1.4811-1.0517-1.9589-0.6903-0.4779-1.821-0.7168-3.3926-0.7168zm-50.984-8.5704c-1.4868 1e-4 -2.6393 0.4828-3.457 1.4493-0.8071 0.9664-1.2109 2.4638-1.2109 4.4922v1.7519c0 2.007 0.4039 3.4995 1.2109 4.4766 0.8177 0.977 1.9702 1.4658 3.457 1.4658 1.4656 0 2.6071-0.4888 3.4248-1.4658 0.8177-0.9771 1.2266-2.4694 1.2266-4.4766v-1.7519c0-2.0178-0.4088-3.5102-1.2266-4.4766-0.8071-0.9769-1.9487-1.4649-3.4248-1.4649zm19.037 9.0479h7.3116v-8.252l-7.3116 8.252zm31.963-9.4941c-1.4016 0-2.4264 0.228-3.0742 0.6845-0.6478 0.4567-0.9717 1.0784-0.9717 1.8643v0.1435c1e-4 0.7857 0.3241 1.4118 0.9717 1.8789 0.6478 0.4567 1.6725 0.6856 3.0742 0.6856 1.4019 0 2.4214-0.2289 3.0586-0.6856 0.6371-0.4672 0.956-1.0932 0.9561-1.8789v-0.1435c0-0.7859-0.3189-1.4076-0.9561-1.8643-0.6372-0.4565-1.6569-0.6845-3.0586-0.6845zm-41.06-20.923c5.5239 0 7.5185 1.9522 7.5214 5.417v1.0977h-9.4824v0.0107c0 1.2007 0.6919 1.872 1.9522 1.8721 1.0502 0 1.607-0.4788 1.7343-1.1407v-0.0322h5.7334c-0.1479 2.2697-2.0056 4.0293-7.414 4.0293-5.6719 0-7.7725-2.0342-7.7725-5.4531v-0.34668c0-3.4303 2.0973-5.454 7.7276-5.4541zm32.064 0c5.5859 5e-5 7.6865 2.0238 7.6865 5.4541v0.34668c0 3.4303-2.1006 5.4531-7.6865 5.4531-5.5772 0-7.6777-2.0342-7.6777-5.4531v-0.34668c0-3.4304 2.1005-5.4541 7.6777-5.4541zm-49.497 6.2139c2e-4 0.90513 0.4824 1.3719 1.417 1.372 1.0622 0 1.6807-0.5873 1.6807-1.5244v-5.6455h5.6807v10.414h-5.6807v-1.8194c-0.725 1.4356-2.2042 2.1973-4.3994 2.1973-2.9617 0-4.3789-1.3726-4.3789-3.7627v-7.0293h5.6806v5.7978zm-23.084-4.0781c0.80774-1.4042 2.29-2.0957 4.379-2.0957 3.4114 0 5.207 1.76 5.2099 5.3623v0.44727c0 3.5993-1.7956 5.3506-5.2099 5.3506-2.0889 0-3.5712-0.6829-4.379-2.0957v1.7285h-5.6807v-14.587h5.6807v5.8896zm63.977 8.6972h-5.6806v-1.7285c-0.8078 1.4128-2.2901 2.0957-4.379 2.0957-3.4142 0-5.2099-1.7484-5.2099-5.3506v-0.44727c0-3.6023 1.7956-5.3623 5.2099-5.3623 2.0889 0 3.5712 0.69145 4.379 2.0957v-5.8896h5.6806v14.587zm25.064-10.417h3.3496v3.1035h-3.3496v2.7168c0 0.59887 0.3967 0.96577 1.6894 0.96587 0.7012 0 1.3316-0.0714 1.6719-0.1202v3.7227c-0.4203 0.0803-1.7017 0.2637-3.456 0.2637-4.4083-1e-4 -5.586-1.1385-5.586-3.3164v-4.2325h-2.4258v-3.1035h2.4258v-3.0928h5.6807v3.0928zm-72.826 10.417h-5.6806v-14.587h5.6806v14.587zm-14.409-7.1562c-1.0947 6e-5 -1.9824 0.86059-1.9824 1.9209 2.4e-4 1.0601 0.88788 1.9198 1.9824 1.9199 1.0946 0 1.9822-0.8598 1.9825-1.9199 0-1.0604-0.88773-1.9209-1.9825-1.9209zm54.758 0c-1.0948 0-1.9825 0.86055-1.9825 1.9209 3e-4 1.0601 0.8879 1.9199 1.9825 1.9199 1.0944-2e-4 1.9792-0.8599 1.9824-1.9199 0-1.0603-0.8878-1.9208-1.9824-1.9209zm15.912 0c-1.0948 0-1.9825 0.86055-1.9825 1.9209 3e-4 1.0601 0.8879 1.9199 1.9825 1.9199 1.0944-2e-4 1.9792-0.8599 1.9824-1.9199 0-1.0602-0.8878-1.9208-1.9824-1.9209zm-31.999-0.85937c-1.145 0-1.8164 0.55898-1.9111 1.6279h3.6953v-0.08008c-0.0207-0.96863-0.6303-1.5478-1.7842-1.5478z" fill="#795F3B"/>
</svg>
